<svg xmlns="http://www.w3.org/2000/svg" xmlns:svgjs="http://svgjs.com/svgjs" xmlns:xlink="http://www.w3.org/1999/xlink" width="288" height="288"><svg xmlns="http://www.w3.org/2000/svg" width="288" height="288" viewBox="0 0 64 64"><path fill="#fff" d="M48.9 35.4 41 32H23l-7.9 3.4C11.4 37 9 40.6 9 44.6V61h46V44.6c0-4-2.4-7.6-6.1-9.2z" class="color068e6a svgShape"/><path fill="#d6d7d8" d="M44 46H20c-1.1 0-2 .9-2 2v13h28V48c0-1.1-.9-2-2-2z" class="colord6d7d8 svgShape"/><path fill="#b4b4b5" d="M27.3 57.7 23.6 54l3.7-3.7 1.4 1.4-2.3 2.3 2.3 2.3zM30.038 56.722l1.993-5.977 1.897.633-1.993 5.976zM36.7 57.7l-1.4-1.4 2.3-2.3-2.3-2.3 1.4-1.4 3.7 3.7z" class="colorb4b4b5 svgShape"/><path fill="#d8ac9e" d="M32 42c5 0 9-4 9-9v-1H23v1c0 5 4 9 9 9zM19 20c-1.1 0-2 .9-2 2v1.8c0 .8.4 1.5 1.1 1.8L21 27v-7h-2zm26 0h-2v7l2.9-1.4c.7-.3 1.1-1 1.1-1.8V22c0-1.1-.9-2-2-2z" class="colord8ac9e svgShape"/><path fill="#ffbf66" d="M45.1 7.8 43 3l-2.3 1.2c-1.1.5-2.3.8-3.6.8H22.7c-.5 0-.9.2-1.2.4l-1.3 1c-1.8 1.5-2.4 4-1.3 6.1L22 19h20l3.2-6.7c.5-1.5.5-3.1-.1-4.5z" class="color6d4444 svgShape"/><path fill="#f7d2c4" d="M34.3 15c-2.2 0-4.3-.7-6-2L27 12l-3.2 1.6c-1.7.8-2.8 2.6-2.8 4.5v8c0 3.7 2 7 5.2 8.8l2.4 1.3c2.1 1.1 4.6 1.1 6.7 0l2.4-1.3c3.2-1.8 5.2-5.1 5.2-8.8V15h-8.6z" class="colorf7d2c4 svgShape"/><path fill="#b4b4b5" d="M38 21h5v2h-5zM21 21h5v2h-5z" class="colorb4b4b5 svgShape"/><path fill="#bcc6ce" d="M25 22c0 1.7 1.3 3 3 3h.4c1 0 1.9-.5 2.5-1.3l2.2-3.3c.6-.8 1.5-1.3 2.5-1.3h.4c1.7 0 3 1.3 3 3s-1.3 3-3 3h-.4c-1 0-1.9-.5-2.5-1.3l-2.2-3.3c-.6-.8-1.5-1.3-2.5-1.3H28c-1.7-.2-3 1.1-3 2.8z" class="colorbcc6ce svgShape"/><path d="m49.3 34.5-6.8-2.9c.7-1.2 1.2-2.5 1.4-3.9l2.5-1.2c1-.5 1.7-1.5 1.7-2.7V22c0-1.7-1.3-3-3-3h-1v-.8l2.1-5.6c.6-1.7.6-3.6-.1-5.2l-2.5-5.8-3.3 1.6c-1 .5-2 .7-3.1.7H22.7c-.7 0-1.3.2-1.9.7l-1.3 1c-2.2 1.8-2.9 4.8-1.6 7.4l2.1 4.3c0 .2-.1.5-.1.7v1h-1c-1.7 0-3 1.3-3 3v1.8c0 1.1.6 2.2 1.7 2.7l2.5 1.2c.2 1.4.7 2.7 1.4 3.9l-6.8 2.9c-4 1.7-6.7 5.7-6.7 10.1V62h48V44.6c0-4.4-2.6-8.4-6.7-10.1zM42 21h-2.1c-.5-1.8-2-3-3.9-3h-.4c-1.3 0-2.6.7-3.3 1.8l-.3.4-.3-.4c-.7-1.1-2-1.8-3.3-1.8H28c-1.8 0-3.4 1.2-3.9 3H22v-2.9c0-1.5.9-2.9 2.2-3.6l2.7-1.3.8.6c1.9 1.4 4.2 2.2 6.6 2.2H42v5zm-4 1c0 1.1-.9 2-2 2h-.4c-.7 0-1.3-.3-1.7-.9l-.7-1.1.7-1.1c.4-.6 1-.9 1.7-.9h.4c1.1 0 2 .9 2 2zm-7.2 0-.7 1.1c-.4.6-1 .9-1.7.9H28c-1.1 0-2-.9-2-2s.9-2 2-2h.4c.7 0 1.3.3 1.7.9l.7 1.1zM22 23h2.1c.5 1.8 2 3 3.9 3h.4c1.3 0 2.6-.7 3.3-1.8l.3-.4.3.4c.7 1.1 2 1.8 3.3 1.8h.4c1.8 0 3.4-1.2 3.9-3H42v3.1c0 3.3-1.8 6.3-4.7 7.9l-2.4 1.3c-1.8 1-4 1-5.7 0L26.7 34c-2.9-1.6-4.7-4.6-4.7-7.9V23zm3.7 12.7 2.4 1.3c2.4 1.3 5.3 1.3 7.7 0l2.4-1.3c.5-.3 1.1-.7 1.6-1.1-.9 4.3-5.2 7.1-9.5 6.2-3.1-.7-5.5-3.1-6.2-6.2.6.5 1.1.8 1.6 1.1zM45 21c.6 0 1 .4 1 1v1.8c0 .4-.2.7-.6.9l-1.4.7V21h1zm-25.3-8.8c-.8-1.7-.4-3.7 1.1-4.9l1.3-1c.2-.2.4-.3.6-.3h14.4c1.4 0 2.8-.3 4-1l1.4-.7 1.6 3.8c.5 1.2.5 2.5.1 3.7l-.8 2.2h-9.1c-1.9 0-3.8-.6-5.4-1.8l-1.8-1.4-3.8 1.9c-.9.5-1.7 1.2-2.3 2.1l-1.3-2.6zM18 23.8V22c0-.6.4-1 1-1h1v4.4l-1.4-.7c-.4-.2-.6-.6-.6-.9zM45 60H19V48c0-.6.4-1 1-1h24c.6 0 1 .4 1 1v12zm9 0h-7V48c0-1.7-1.3-3-3-3H20c-1.7 0-3 1.3-3 3v12h-7V44.6c0-3.6 2.1-6.9 5.5-8.3l6.6-2.8c.3 5.5 5 9.8 10.5 9.5 5.1-.3 9.2-4.4 9.5-9.5l6.6 2.8c3.3 1.4 5.5 4.7 5.5 8.3V60z" class="color000 svgShape"/><path d="M27.3 50.3 23.6 54l3.7 3.7 1.4-1.4-2.3-2.3 2.3-2.3zM30.038 56.722l1.993-5.977 1.897.633-1.993 5.976zM35.3 51.7l2.3 2.3-2.3 2.3 1.4 1.4 3.7-3.7-3.7-3.7z" class="color000 svgShape"/></svg></svg>